<svg width="800" height="800" viewBox="0 0 800 800" xmlns="http://www.w3.org/2000/svg">
  <defs>
    <linearGradient id="sky" x1="0" y1="0" x2="0" y2="1">
      <stop offset="0%" stop-color="#0f172a"/>
      <stop offset="55%" stop-color="#1e293b"/>
      <stop offset="100%" stop-color="#334155"/>
    </linearGradient>
    <linearGradient id="building" x1="0" y1="0" x2="0" y2="1">
      <stop offset="0%" stop-color="#e2e8f0"/>
      <stop offset="100%" stop-color="#94a3b8"/>
    </linearGradient>
  </defs>
  <rect width="800" height="800" fill="url(#sky)"/>
  <rect x="70" y="520" width="660" height="220" fill="#0b1220"/>
  <rect x="250" y="180" width="300" height="420" rx="10" fill="url(#building)"/>
  <rect x="220" y="230" width="360" height="28" fill="#cbd5e1"/>
  <rect x="295" y="140" width="210" height="45" rx="6" fill="#f8fafc"/>
  <g fill="#475569">
    <rect x="285" y="280" width="40" height="60"/>
    <rect x="340" y="280" width="40" height="60"/>
    <rect x="395" y="280" width="40" height="60"/>
    <rect x="450" y="280" width="40" height="60"/>
    <rect x="285" y="360" width="40" height="60"/>
    <rect x="340" y="360" width="40" height="60"/>
    <rect x="395" y="360" width="40" height="60"/>
    <rect x="450" y="360" width="40" height="60"/>
  </g>
  <rect x="355" y="460" width="90" height="140" fill="#334155"/>
  <circle cx="120" cy="120" r="42" fill="#38bdf8" fill-opacity="0.35"/>
  <text x="400" y="690" text-anchor="middle" fill="#e2e8f0" font-family="Inter, Arial, sans-serif" font-size="34" font-weight="700">
    Greystar HQ
  </text>
  <text x="400" y="730" text-anchor="middle" fill="#94a3b8" font-family="Inter, Arial, sans-serif" font-size="24">
    Charleston, South Carolina
  </text>
</svg>
